  0
SECTION
  2
HEADER
  9
$ACADVER
  1
AC1014
  9
$HANDSEED
  5
FFFF
  9
$MEASUREMENT
 70
     1
  0
ENDSEC
  0
SECTION
  2
TABLES
  0
TABLE
  2
VPORT
  5
8
330
0
100
AcDbSymbolTable
 70
     4
  0
VPORT
  5
2E
330
8
100
AcDbSymbolTableRecord
100
AcDbViewportTableRecord
  2
*ACTIVE
 70
     0
 10
0.0
 20
0.0
 11
1.0
 21
1.0
 12
210.0
 22
148.5
 13
0.0
 23
0.0
 14
10.0
 24
10.0
 15
10.0
 25
10.0
 16
0.0
 26
0.0
 36
1.0
 17
0.0
 27
0.0
 37
0.0
 40
341.0
 41
1.24
 42
50.0
 43
0.0
 44
0.0
 50
0.0
 51
0.0
 71
     0
 72
   100
 73
     1
 74
     3
 75
     0
 76
     0
 77
     0
 78
     0
  0
ENDTAB
  0
TABLE
  2
LTYPE
  5
5
330
0
100
AcDbSymbolTable
 70
     1
  0
LTYPE
  5
14
330
5
100
AcDbSymbolTableRecord
100
AcDbLinetypeTableRecord
  2
BYBLOCK
 70
     0
  3

 72
    65
 73
     0
 40
0.0
  0
LTYPE
  5
15
330
5
100
AcDbSymbolTableRecord
100
AcDbLinetypeTableRecord
  2
BYLAYER
 70
     0
  3

 72
    65
 73
     0
 40
0.0
  0
LTYPE
  5
16
330
5
100
AcDbSymbolTableRecord
100
AcDbLinetypeTableRecord
  2
CONTINUOUS
 70
     0
  3
Solid line
 72
    65
 73
     0
 40
0.0
  0
ENDTAB
  0
TABLE
  2
LAYER
  5
2
100
AcDbSymbolTable
 70
7
  0
LAYER
  5
50
100
AcDbSymbolTableRecord
100
AcDbLayerTableRecord
  2
0
 70
0
  6
CONTINUOUS
  0
LAYER
  5
51
100
AcDbSymbolTableRecord
100
AcDbLayerTableRecord
  2
draw
 70
0
  6
CONTINUOUS
  0
LAYER
  5
52
100
AcDbSymbolTableRecord
100
AcDbLayerTableRecord
  2
圖層_1
 70
0
  6
CONTINUOUS
  0
LAYER
  5
53
100
AcDbSymbolTableRecord
100
AcDbLayerTableRecord
  2
圖層_2
 70
0
  6
CONTINUOUS
  0
LAYER
  5
54
100
AcDbSymbolTableRecord
100
AcDbLayerTableRecord
  2
圖層_3
 70
0
  6
CONTINUOUS
  0
LAYER
  5
55
100
AcDbSymbolTableRecord
100
AcDbLayerTableRecord
  2
圖層_4
 70
0
  6
CONTINUOUS
  0
LAYER
  5
56
100
AcDbSymbolTableRecord
100
AcDbLayerTableRecord
  2
圖層_5
 70
0
  6
CONTINUOUS
  0
ENDTAB
  0
TABLE
  2
STYLE
  5
3
330
0
100
AcDbSymbolTable
 70
     1
  0
STYLE
  5
11
330
3
100
AcDbSymbolTableRecord
100
AcDbTextStyleTableRecord
  2
STANDARD
 70
     0
 40
0.0
 41
1.0
 50
0.0
 71
     0
 42
2.5
  3
txt
  4

  0
ENDTAB
  0
TABLE
  2
VIEW
  5
6
330
0
100
AcDbSymbolTable
 70
     0
  0
ENDTAB
  0
TABLE
  2
UCS
  5
7
330
0
100
AcDbSymbolTable
 70
     0
  0
ENDTAB
  0
TABLE
  2
APPID
  5
9
330
0
100
AcDbSymbolTable
 70
     2
  0
APPID
  5
12
330
9
100
AcDbSymbolTableRecord
100
AcDbRegAppTableRecord
  2
ACAD
 70
     0
  0
ENDTAB
  0
TABLE
  2
DIMSTYLE
  5
A
330
0
100
AcDbSymbolTable
 70
     1
  0
DIMSTYLE
105
27
330
A
100
AcDbSymbolTableRecord
100
AcDbDimStyleTableRecord
  2
ISO-25
 70
     0
  3

  4

  5

  6

  7

 40
1.0
 41
2.5
 42
0.625
 43
3.75
 44
1.25
 45
0.0
 46
0.0
 47
0.0
 48
0.0
140
2.5
141
2.5
142
0.0
143
0.03937007874016
144
1.0
145
0.0
146
1.0
147
0.625
 71
     0
 72
     0
 73
     0
 74
     0
 75
     0
 76
     0
 77
     1
 78
     8
170
     0
171
     3
172
     1
173
     0
174
     0
175
     0
176
     0
177
     0
178
     0
270
     2
271
     2
272
     2
273
     2
274
     3
340
11
275
     0
280
     0
281
     0
282
     0
283
     0
284
     8
285
     0
286
     0
287
     3
288
     0
  0
ENDTAB
  0
TABLE
  2
BLOCK_RECORD
  5
1
330
0
100
AcDbSymbolTable
 70
     1
  0
BLOCK_RECORD
  5
1F
330
1
100
AcDbSymbolTableRecord
100
AcDbBlockTableRecord
  2
*MODEL_SPACE
  0
BLOCK_RECORD
  5
1B
330
1
100
AcDbSymbolTableRecord
100
AcDbBlockTableRecord
  2
*PAPER_SPACE
  0
ENDTAB
  0
ENDSEC
  0
SECTION
  2
BLOCKS
  0
BLOCK
  5
20
330
1F
100
AcDbEntity
  8
0
100
AcDbBlockBegin
  2
*MODEL_SPACE
 70
     0
 10
0.0
 20
0.0
 30
0.0
  3
*MODEL_SPACE
  1

  0
ENDBLK
  5
21
330
1F
100
AcDbEntity
  8
0
100
AcDbBlockEnd
  0
BLOCK
  5
1C
330
1B
100
AcDbEntity
 67
     1
  8
0
100
AcDbBlockBegin
  2
*PAPER_SPACE
  1

  0
ENDBLK
  5
1D
330
1B
100
AcDbEntity
 67
     1
  8
0
100
AcDbBlockEnd
  0
ENDSEC
  0
SECTION
  2
ENTITIES
  0
SPLINE
  5
100
100
AcDbEntity
  8
圖層_5
 62
7
100
AcDbSpline
 70
8
 71
3
 72
8
 73
4
 74
0
 40
0
 40
0
 40
0
 40
0
 40
1
 40
1
 40
1
 40
1
 10
165.472595
 20
187.173175
 30
0.0
 10
165.472595
 20
181.522706
 30
0.0
 10
162.846850
 20
176.484502
 30
0.0
 10
158.748051
 20
173.213552
 30
0.0
  0
SPLINE
  5
101
100
AcDbEntity
  8
圖層_5
 62
7
100
AcDbSpline
 70
8
 71
3
 72
8
 73
4
 74
0
 40
0
 40
0
 40
0
 40
0
 40
1
 40
1
 40
1
 40
1
 10
158.748051
 20
173.213552
 30
0.0
 10
157.581557
 20
172.282659
 30
0.0
 10
153.878239
 20
167.092460
 30
0.0
 10
152.242106
 20
167.428295
 30
0.0
  0
SPLINE
  5
102
100
AcDbEntity
  8
圖層_5
 62
7
100
AcDbSpline
 70
8
 71
3
 72
8
 73
4
 74
0
 40
0
 40
0
 40
0
 40
0
 40
1
 40
1
 40
1
 40
1
 10
152.242106
 20
167.428295
 30
0.0
 10
151.975758
 20
167.482965
 30
0.0
 10
151.915065
 20
173.864102
 30
0.0
 10
151.915065
 20
173.864102
 30
0.0
  0
SPLINE
  5
103
100
AcDbEntity
  8
圖層_5
 62
7
100
AcDbSpline
 70
8
 71
3
 72
8
 73
4
 74
0
 40
0
 40
0
 40
0
 40
0
 40
1
 40
1
 40
1
 40
1
 10
151.915065
 20
173.864102
 30
0.0
 10
151.091505
 20
174.580804
 30
0.0
 10
149.291107
 20
174.639648
 30
0.0
 10
147.746888
 20
174.551858
 30
0.0
  0
SPLINE
  5
104
100
AcDbEntity
  8
圖層_5
 62
7
100
AcDbSpline
 70
8
 71
3
 72
8
 73
4
 74
0
 40
0
 40
0
 40
0
 40
0
 40
1
 40
1
 40
1
 40
1
 10
147.746888
 20
174.551858
 30
0.0
 10
146.147148
 20
174.549058
 30
0.0
 10
144.205261
 20
174.569608
 30
0.0
 10
143.524651
 20
173.828061
 30
0.0
  0
SPLINE
  5
105
100
AcDbEntity
  8
圖層_5
 62
7
100
AcDbSpline
 70
8
 71
3
 72
8
 73
4
 74
0
 40
0
 40
0
 40
0
 40
0
 40
1
 40
1
 40
1
 40
1
 10
143.247122
 20
167.556011
 30
0.0
 10
141.788562
 20
166.921573
 30
0.0
 10
138.441900
 20
171.741085
 30
0.0
 10
136.899689
 20
172.901627
 30
0.0
  0
SPLINE
  5
106
100
AcDbEntity
  8
圖層_5
 62
7
100
AcDbSpline
 70
8
 71
3
 72
8
 73
4
 74
0
 40
0
 40
0
 40
0
 40
0
 40
1
 40
1
 40
1
 40
1
 10
136.899689
 20
172.901627
 30
0.0
 10
132.590476
 20
176.144388
 30
0.0
 10
129.795949
 20
181.294161
 30
0.0
 10
129.772737
 20
187.101832
 30
0.0
  0
SPLINE
  5
107
100
AcDbEntity
  8
圖層_5
 62
7
100
AcDbSpline
 70
8
 71
3
 72
8
 73
4
 74
0
 40
0
 40
0
 40
0
 40
0
 40
1
 40
1
 40
1
 40
1
 10
129.772737
 20
187.101832
 30
0.0
 10
129.733387
 20
196.946109
 30
0.0
 10
137.671402
 20
204.963837
 30
0.0
 10
147.515581
 20
205.022855
 30
0.0
  0
SPLINE
  5
108
100
AcDbEntity
  8
圖層_5
 62
7
100
AcDbSpline
 70
8
 71
3
 72
8
 73
4
 74
0
 40
0
 40
0
 40
0
 40
0
 40
1
 40
1
 40
1
 40
1
 10
147.515581
 20
205.022855
 30
0.0
 10
157.359760
 20
205.081875
 30
0.0
 10
165.393335
 20
197.159900
 30
0.0
 10
165.472025
 20
187.315859
 30
0.0
  0
LWPOLYLINE
  5
109
100
AcDbEntity
  8
圖層_5
 62
7
100
AcDbPolyline
 90
2
 70
0
 10
143.524651
 20
173.828061
 30
0.0
 10
143.247122
 20
167.556011
 30
0.0
  0
LWPOLYLINE
  5
10a
100
AcDbEntity
  8
圖層_5
 62
7
100
AcDbPolyline
 90
4
 70
1
 10
244.108488
 20
119.006798
 30
0.0
 10
297.309508
 20
119.006798
 30
0.0
 10
297.309508
 20
101.359585
 30
0.0
 10
244.108488
 20
101.359585
 30
0.0
  0
LWPOLYLINE
  5
10b
100
AcDbEntity
  8
圖層_5
 62
7
100
AcDbPolyline
 90
4
 70
1
 10
223.214164
 20
115.500689
 30
0.0
 10
239.318055
 20
115.500689
 30
0.0
 10
239.318055
 20
103.564625
 30
0.0
 10
223.214164
 20
103.564625
 30
0.0
  0
LWPOLYLINE
  5
10c
100
AcDbEntity
  8
圖層_5
 62
7
100
AcDbPolyline
 90
4
 70
1
 10
301.944081
 20
115.693290
 30
0.0
 10
317.811245
 20
115.693290
 30
0.0
 10
317.811245
 20
103.649010
 30
0.0
 10
301.944081
 20
103.649010
 30
0.0
  0
LWPOLYLINE
  5
10d
100
AcDbEntity
  8
圖層_5
 62
7
100
AcDbPolyline
 90
4
 70
1
 10
315.545082
 20
80.910589
 30
0.0
 10
332.491572
 20
80.910589
 30
0.0
 10
332.491572
 20
59.808626
 30
0.0
 10
315.545082
 20
59.808626
 30
0.0
  0
SPLINE
  5
10e
100
AcDbEntity
  8
圖層_5
 62
7
100
AcDbSpline
 70
8
 71
3
 72
8
 73
4
 74
0
 40
0
 40
0
 40
0
 40
0
 40
1
 40
1
 40
1
 40
1
 10
702.531889
 20
-49.784871
 30
0.0
 10
672.043055
 20
-49.784871
 30
0.0
 10
644.556348
 20
-68.150902
 30
0.0
 10
632.888777
 20
-96.318911
 30
0.0
  0
SPLINE
  5
10f
100
AcDbEntity
  8
圖層_5
 62
7
100
AcDbSpline
 70
8
 71
3
 72
8
 73
4
 74
0
 40
0
 40
0
 40
0
 40
0
 40
1
 40
1
 40
1
 40
1
 10
632.888777
 20
-96.318911
 30
0.0
 10
621.221205
 20
-124.486921
 30
0.0
 10
627.670497
 20
-156.909702
 30
0.0
 10
649.229358
 20
-178.468564
 30
0.0
  0
SPLINE
  5
110
100
AcDbEntity
  8
圖層_5
 62
7
100
AcDbSpline
 70
8
 71
3
 72
8
 73
4
 74
0
 40
0
 40
0
 40
0
 40
0
 40
1
 40
1
 40
1
 40
1
 10
649.229358
 20
-178.468564
 30
0.0
 10
670.788220
 20
-200.027425
 30
0.0
 10
703.211001
 20
-206.476717
 30
0.0
 10
731.379011
 20
-194.809145
 30
0.0
  0
SPLINE
  5
111
100
AcDbEntity
  8
圖層_5
 62
7
100
AcDbSpline
 70
8
 71
3
 72
8
 73
4
 74
0
 40
0
 40
0
 40
0
 40
0
 40
1
 40
1
 40
1
 40
1
 10
731.379011
 20
-194.809145
 30
0.0
 10
759.547020
 20
-183.141574
 30
0.0
 10
777.913051
 20
-155.654867
 30
0.0
 10
777.913051
 20
-125.166033
 30
0.0
  0
SPLINE
  5
112
100
AcDbEntity
  8
圖層_5
 62
7
100
AcDbSpline
 70
8
 71
3
 72
8
 73
4
 74
0
 40
0
 40
0
 40
0
 40
0
 40
1
 40
1
 40
1
 40
1
 10
777.913051
 20
-125.166033
 30
0.0
 10
777.913051
 20
-105.173706
 30
0.0
 10
769.971130
 20
-86.000213
 30
0.0
 10
755.834419
 20
-71.863502
 30
0.0
  0
SPLINE
  5
113
100
AcDbEntity
  8
圖層_5
 62
7
100
AcDbSpline
 70
8
 71
3
 72
8
 73
4
 74
0
 40
0
 40
0
 40
0
 40
0
 40
1
 40
1
 40
1
 40
1
 10
755.834419
 20
-71.863502
 30
0.0
 10
741.697709
 20
-57.726792
 30
0.0
 10
722.524216
 20
-49.784871
 30
0.0
 10
702.531889
 20
-49.784871
 30
0.0
  0
LWPOLYLINE
  5
114
100
AcDbEntity
  8
圖層_5
 62
7
100
AcDbPolyline
 90
4
 70
1
 10
229.479211
 20
44.554637
 30
0.0
 10
250.237225
 20
44.554637
 30
0.0
 10
250.237225
 20
23.803536
 30
0.0
 10
229.479211
 20
23.803536
 30
0.0
  0
SPLINE
  5
115
100
AcDbEntity
  8
圖層_5
 62
7
100
AcDbSpline
 70
8
 71
3
 72
8
 73
4
 74
0
 40
0
 40
0
 40
0
 40
0
 40
1
 40
1
 40
1
 40
1
 10
123.463400
 20
187.317850
 30
0.0
 10
123.463402
 20
176.715195
 30
0.0
 10
114.879487
 20
168.114109
 30
0.0
 10
104.276850
 20
168.092920
 30
0.0
  0
SPLINE
  5
116
100
AcDbEntity
  8
圖層_5
 62
7
100
AcDbSpline
 70
8
 71
3
 72
8
 73
4
 74
0
 40
0
 40
0
 40
0
 40
0
 40
1
 40
1
 40
1
 40
1
 10
104.276850
 20
168.092920
 30
0.0
 10
93.674213
 20
168.071732
 30
0.0
 10
85.055990
 20
176.638440
 30
0.0
 10
85.013615
 20
187.241010
 30
0.0
  0
SPLINE
  5
117
100
AcDbEntity
  8
圖層_5
 62
7
100
AcDbSpline
 70
8
 71
3
 72
8
 73
4
 74
0
 40
0
 40
0
 40
0
 40
0
 40
1
 40
1
 40
1
 40
1
 10
85.013615
 20
187.241010
 30
0.0
 10
84.971239
 20
197.843578
 30
0.0
 10
93.520708
 20
206.478900
 30
0.0
 10
104.123174
 20
206.542465
 30
0.0
  0
SPLINE
  5
118
100
AcDbEntity
  8
圖層_5
 62
7
100
AcDbSpline
 70
8
 71
3
 72
8
 73
4
 74
0
 40
0
 40
0
 40
0
 40
0
 40
1
 40
1
 40
1
 40
1
 10
104.123174
 20
206.542465
 30
0.0
 10
114.725643
 20
206.606032
 30
0.0
 10
123.378038
 20
198.073837
 30
0.0
 10
123.462790
 20
187.471520
 30
0.0
  0
SPLINE
  5
119
100
AcDbEntity
  8
圖層_5
 62
7
100
AcDbSpline
 70
8
 71
3
 72
8
 73
4
 74
0
 40
0
 40
0
 40
0
 40
0
 40
1
 40
1
 40
1
 40
1
 10
341.042591
 20
-45.107232
 30
0.0
 10
299.410725
 20
-45.107232
 30
0.0
 10
265.661430
 20
-78.856528
 30
0.0
 10
265.661430
 20
-120.488394
 30
0.0
  0
SPLINE
  5
11a
100
AcDbEntity
  8
圖層_5
 62
7
100
AcDbSpline
 70
8
 71
3
 72
8
 73
4
 74
0
 40
0
 40
0
 40
0
 40
0
 40
1
 40
1
 40
1
 40
1
 10
265.661430
 20
-120.488394
 30
0.0
 10
265.661430
 20
-162.120260
 30
0.0
 10
299.410725
 20
-195.869555
 30
0.0
 10
341.042591
 20
-195.869555
 30
0.0
  0
SPLINE
  5
11b
100
AcDbEntity
  8
圖層_5
 62
7
100
AcDbSpline
 70
8
 71
3
 72
8
 73
4
 74
0
 40
0
 40
0
 40
0
 40
0
 40
1
 40
1
 40
1
 40
1
 10
341.042591
 20
-195.869555
 30
0.0
 10
382.674457
 20
-195.869555
 30
0.0
 10
416.423753
 20
-162.120260
 30
0.0
 10
416.423753
 20
-120.488394
 30
0.0
  0
SPLINE
  5
11c
100
AcDbEntity
  8
圖層_5
 62
7
100
AcDbSpline
 70
8
 71
3
 72
8
 73
4
 74
0
 40
0
 40
0
 40
0
 40
0
 40
1
 40
1
 40
1
 40
1
 10
416.423753
 20
-120.488394
 30
0.0
 10
416.423753
 20
-100.496067
 30
0.0
 10
408.481832
 20
-81.322573
 30
0.0
 10
394.345122
 20
-67.185863
 30
0.0
  0
SPLINE
  5
11d
100
AcDbEntity
  8
圖層_5
 62
7
100
AcDbSpline
 70
8
 71
3
 72
8
 73
4
 74
0
 40
0
 40
0
 40
0
 40
0
 40
1
 40
1
 40
1
 40
1
 10
394.345122
 20
-67.185863
 30
0.0
 10
380.208412
 20
-53.049153
 30
0.0
 10
361.034918
 20
-45.107232
 30
0.0
 10
341.042591
 20
-45.107232
 30
0.0
  0
LWPOLYLINE
  5
11e
100
AcDbEntity
  8
圖層_5
 62
7
100
AcDbPolyline
 90
1
 70
1
 10
702.531889
 20
-49.784871
 30
0.0
  0
SPLINE
  5
11f
100
AcDbEntity
  8
圖層_5
 62
7
100
AcDbSpline
 70
8
 71
3
 72
8
 73
4
 74
0
 40
0
 40
0
 40
0
 40
0
 40
1
 40
1
 40
1
 40
1
 10
79.554853
 20
187.317850
 30
0.0
 10
79.554856
 20
177.004338
 30
0.0
 10
71.205033
 20
168.637811
 30
0.0
 10
60.891539
 20
168.617200
 30
0.0
  0
SPLINE
  5
120
100
AcDbEntity
  8
圖層_5
 62
7
100
AcDbSpline
 70
8
 71
3
 72
8
 73
4
 74
0
 40
0
 40
0
 40
0
 40
0
 40
1
 40
1
 40
1
 40
1
 10
60.891539
 20
168.617200
 30
0.0
 10
50.578045
 20
168.596590
 30
0.0
 10
42.194849
 20
176.929680
 30
0.0
 10
42.153632
 20
187.243110
 30
0.0
  0
SPLINE
  5
121
100
AcDbEntity
  8
圖層_5
 62
7
100
AcDbSpline
 70
8
 71
3
 72
8
 73
4
 74
0
 40
0
 40
0
 40
0
 40
0
 40
1
 40
1
 40
1
 40
1
 10
42.153632
 20
187.243110
 30
0.0
 10
42.112414
 20
197.556535
 30
0.0
 10
50.428729
 20
205.956362
 30
0.0
 10
60.742054
 20
206.018194
 30
0.0
  0
SPLINE
  5
122
100
AcDbEntity
  8
圖層_5
 62
7
100
AcDbSpline
 70
8
 71
3
 72
8
 73
4
 74
0
 40
0
 40
0
 40
0
 40
0
 40
1
 40
1
 40
1
 40
1
 10
60.742054
 20
206.018194
 30
0.0
 10
71.055382
 20
206.080025
 30
0.0
 10
79.471816
 20
197.780511
 30
0.0
 10
79.554256
 20
187.467330
 30
0.0
  0
SPLINE
  5
123
100
AcDbEntity
  8
圖層_5
 62
7
100
AcDbSpline
 70
8
 71
3
 72
8
 73
4
 74
0
 40
0
 40
0
 40
0
 40
0
 40
1
 40
1
 40
1
 40
1
 10
230.000005
 20
-42.165547
 30
0.0
 10
199.511171
 20
-42.165547
 30
0.0
 10
172.024464
 20
-60.531577
 30
0.0
 10
160.356893
 20
-88.699587
 30
0.0
  0
SPLINE
  5
124
100
AcDbEntity
  8
圖層_5
 62
7
100
AcDbSpline
 70
8
 71
3
 72
8
 73
4
 74
0
 40
0
 40
0
 40
0
 40
0
 40
1
 40
1
 40
1
 40
1
 10
160.356893
 20
-88.699587
 30
0.0
 10
148.689321
 20
-116.867597
 30
0.0
 10
155.138613
 20
-149.290378
 30
0.0
 10
176.697475
 20
-170.849239
 30
0.0
  0
SPLINE
  5
125
100
AcDbEntity
  8
圖層_5
 62
7
100
AcDbSpline
 70
8
 71
3
 72
8
 73
4
 74
0
 40
0
 40
0
 40
0
 40
0
 40
1
 40
1
 40
1
 40
1
 10
176.697475
 20
-170.849239
 30
0.0
 10
198.256336
 20
-192.408100
 30
0.0
 10
230.679117
 20
-198.857393
 30
0.0
 10
258.847127
 20
-187.189821
 30
0.0
  0
SPLINE
  5
126
100
AcDbEntity
  8
圖層_5
 62
7
100
AcDbSpline
 70
8
 71
3
 72
8
 73
4
 74
0
 40
0
 40
0
 40
0
 40
0
 40
1
 40
1
 40
1
 40
1
 10
258.847127
 20
-187.189821
 30
0.0
 10
287.015136
 20
-175.522249
 30
0.0
 10
305.381167
 20
-148.035542
 30
0.0
 10
305.381167
 20
-117.546709
 30
0.0
  0
SPLINE
  5
127
100
AcDbEntity
  8
圖層_5
 62
7
100
AcDbSpline
 70
8
 71
3
 72
8
 73
4
 74
0
 40
0
 40
0
 40
0
 40
0
 40
1
 40
1
 40
1
 40
1
 10
305.381167
 20
-117.546709
 30
0.0
 10
305.381167
 20
-97.554382
 30
0.0
 10
297.439246
 20
-78.380888
 30
0.0
 10
283.302536
 20
-64.244178
 30
0.0
  0
SPLINE
  5
128
100
AcDbEntity
  8
圖層_5
 62
7
100
AcDbSpline
 70
8
 71
3
 72
8
 73
4
 74
0
 40
0
 40
0
 40
0
 40
0
 40
1
 40
1
 40
1
 40
1
 10
283.302536
 20
-64.244178
 30
0.0
 10
269.165826
 20
-50.107468
 30
0.0
 10
249.992332
 20
-42.165547
 30
0.0
 10
230.000005
 20
-42.165547
 30
0.0
  0
LWPOLYLINE
  5
129
100
AcDbEntity
  8
圖層_5
 62
7
100
AcDbPolyline
 90
1
 70
1
 10
341.042591
 20
-45.107232
 30
0.0
  0
LWPOLYLINE
  5
12a
100
AcDbEntity
  8
圖層_5
 62
7
100
AcDbPolyline
 90
1
 70
1
 10
230.000005
 20
-42.165547
 30
0.0
  0
ENDSEC
  0
SECTION
  2
OBJECTS
  0
DICTIONARY
  5
C
330
0
100
AcDbDictionary
  3
ACAD_GROUP
350
D
  3
ACAD_MLINESTYLE
350
17
  0
DICTIONARY
  5
D
330
C
100
AcDbDictionary
  0
DICTIONARY
  5
1A
330
C
100
AcDbDictionary
  0
DICTIONARY
  5
17
330
C
100
AcDbDictionary
  3
STANDARD
350
18
  0
DICTIONARY
  5
19
330
C
100
AcDbDictionary
  0
ENDSEC
  0
EOF
